<?xml version="1.0" encoding="UTF-8" standalone="no"?>
<svg width="878px" height="198px" viewBox="0 0 878 198" version="1.1" xmlns="http://www.w3.org/2000/svg" xmlns:xlink="http://www.w3.org/1999/xlink" xmlns:sketch="http://www.bohemiancoding.com/sketch/ns">
    <!-- Generator: Sketch 3.0.2 (7799) - http://www.bohemiancoding.com/sketch -->
    <title>ulabox-logo</title>
    <description>Created with Sketch.</description>
    <defs>
        <path id="path-1" d="M151.167911,0.338421301 L12.4899114,29.5117618 C3.98191136,31.3075204 -1.45508864,39.6225114 0.343911358,48.1042015 L29.2849114,184.45009 C31.0819114,192.916807 39.4469114,198.338021 47.9469114,196.548252 L186.616911,167.374911 C195.134911,165.584144 200.576911,157.257174 198.780911,148.788461 L197.684911,143.684674 C197.684911,143.684674 94.9729114,173.757391 37.9529114,90.497679 C37.9589114,90.497679 88.2239114,152.488782 185.839911,87.8594411 L169.845911,12.4375817 C168.034911,3.96188076 159.683911,-1.43936969 151.167911,0.338421301 Z"></path>
    </defs>
    <g id="Logo" stroke="none" stroke-width="1" fill="none" fill-rule="evenodd" sketch:type="MSPage">
        <g id="ulabox-logo" sketch:type="MSLayerGroup" transform="translate(0.500000, 0.500000)">
            <path d="M240.993586,55.6331777 L275.794951,55.6331777 L275.794951,116.859518 C275.794951,126.591325 279.615664,130.645066 286.858181,130.645066 C301.744128,130.645066 308.784183,117.467629 308.784183,101.856736 L308.784183,55.6331777 L343.583543,55.6331777 L343.583543,160.042518 L310.192394,160.042518 L310.192394,150.919832 C310.192394,147.473193 310.594311,144.431624 310.594311,144.431624 L310.192394,144.431624 C304.559549,155.582695 291.685189,162.474964 277.806538,162.474964 C257.287745,162.474964 240.993586,152.743157 240.993586,123.347726 L240.993586,55.6331777 L240.993586,55.6331777 Z M362.291206,15.085665 L397.09257,15.085665 L397.09257,116.858508 C397.09257,126.792345 398.902698,130.238985 406.747589,130.238985 C408.960635,130.238985 410.972223,130.036954 410.972223,130.036954 L410.972223,160.446579 C410.972223,160.446579 406.145215,161.055701 400.511367,161.055701 C382.005163,161.055701 362.291206,156.594868 362.291206,121.521371 L362.291206,15.085665 L362.291206,15.085665 Z M480.973862,94.9634569 L482.382073,94.9634569 L482.382073,93.1391218 C482.382073,84.4215076 475.743935,81.5829797 467.093207,81.5829797 C454.01839,81.5829797 439.133445,91.5178274 439.133445,91.5178274 L427.06392,66.7842487 C427.06392,66.7842487 444.966747,53.200731 470.514008,53.200731 C499.682527,53.200731 517.182435,69.2166954 517.182435,95.7756193 L517.182435,160.042518 L485.398953,160.042518 L485.398953,153.75735 C485.398953,150.310711 485.80087,147.270152 485.80087,147.270152 L485.398953,147.270152 C485.398953,147.270152 477.755522,162.474964 456.029977,162.474964 C436.718938,162.474964 420.827698,149.499558 420.827698,128.821741 C420.828701,98.4100964 464.882165,94.9634569 480.973862,94.9634569 L480.973862,94.9634569 Z M465.687,135.71401 C474.738642,135.71401 482.785994,125.780173 482.785994,117.264589 L482.785994,115.035183 L479.566653,115.035183 C468.503423,115.035183 455.830522,118.278782 455.830522,126.996396 C455.830522,131.861289 458.8464,135.71401 465.687,135.71401 L465.687,135.71401 Z M535.688639,15.085665 L570.489001,15.085665 L570.489001,55.4301371 C570.489001,60.7011117 570.087085,64.3507919 570.087085,64.3507919 L570.489001,64.3507919 C570.489001,64.3507919 580.145022,53.1997208 598.449766,53.1997208 C626.61199,53.1997208 645.118193,75.5008528 645.118193,107.937853 C645.118193,140.984985 624.397941,162.473954 596.840095,162.473954 C577.730515,162.473954 568.476411,150.714772 568.476411,150.714772 L568.074495,150.714772 C568.074495,150.714772 568.275954,153.350259 568.275954,156.593858 L568.275954,160.040497 L535.687637,160.040497 L535.687637,15.085665 L535.688639,15.085665 Z M589.801042,133.483594 C600.663815,133.483594 610.118376,124.563949 610.118376,108.546975 C610.118376,92.9360812 601.870567,82.8002132 589.801042,82.8002132 C579.340186,82.8002132 569.483709,90.5036345 569.483709,108.546975 C569.483709,121.11731 576.121847,133.483594 589.801042,133.483594 L589.801042,133.483594 Z M713.108245,53.200731 C745.898022,53.200731 772.047656,75.2978122 772.047656,108.141904 C772.047656,140.781944 745.898022,162.474964 713.309704,162.474964 C680.721386,162.474964 654.57075,140.781944 654.57075,108.141904 C654.571752,75.2978122 680.722389,53.200731 713.108245,53.200731 L713.108245,53.200731 Z M713.310706,133.281563 C725.982605,133.281563 736.844375,123.752797 736.844375,108.141904 C736.844375,92.3289797 725.981602,82.3951421 713.310706,82.3951421 C700.636803,82.3951421 689.775033,92.3289797 689.775033,108.141904 C689.774031,123.752797 700.636803,133.281563 713.310706,133.281563 L713.310706,133.281563 Z M802.621379,108.344944 L769.229229,55.6331777 L808.455685,55.6331777 L819.719371,78.9485025 C821.128585,81.5829797 822.937711,85.8407716 822.937711,85.8407716 L823.34063,85.8407716 C823.34063,85.8407716 825.353219,81.5829797 826.558969,78.9485025 L837.824661,55.6331777 L877.049112,55.6331777 L843.858421,108.344944 L876.446738,160.042518 L838.226577,160.042518 L825.755136,136.525162 C824.748841,134.700827 823.341632,131.254188 823.341632,131.254188 L822.938713,131.254188 C822.938713,131.254188 821.531504,134.700827 820.525209,136.525162 L808.255227,160.042518 L770.035066,160.042518 L802.621379,108.344944 L802.621379,108.344944 Z" id="ulabox" fill="#ffffff" sketch:type="MSShapeGroup"></path>
            <mask id="mask-2" sketch:name="Symbol" fill="white">
                <use xlink:href="#path-1"></use>
            </mask>
            <use id="Symbol" fill="#ffffff" sketch:type="MSShapeGroup" xlink:href="#path-1"></use>
        </g>
    </g>
</svg>
